<svg aria-label="" role="presentation" aria-hidden="true" preserveAspectRatio="xMidYMid meet" viewBox="19.559 19.559 160 160" xmlns="http://www.w3.org/2000/svg">
  <g>
    <path fill="#edf96f" d="M179.559 99.559c0 44.183-35.817 80-80 80s-80-35.817-80-80 35.817-80 80-80 80 35.817 80 80"/>
    <path d="M99.483 174.251c-41.227 0-74.768-33.54-74.768-74.768s33.541-74.767 74.768-74.767 74.768 33.54 74.768 74.768-33.54 74.768-74.768 74.768Zm0-148.246c-40.516 0-73.478 32.963-73.478 73.478s32.963 73.478 73.478 73.478 73.478-32.963 73.478-73.478-32.962-73.478-73.478-73.478"/>
    <path d="M46.979 120.96a2.386 2.386 0 1 1-4.772 0 2.386 2.386 0 0 1 4.772 0"/>
    <path d="M55.332 62.492a2.386 2.386 0 1 1-4.772 0 2.386 2.386 0 0 1 4.772 0"/>
    <path d="M110.286 41.014a2.386 2.386 0 1 1-4.772 0 2.386 2.386 0 0 1 4.772 0"/>
    <path d="M156.757 75.617a2.386 2.386 0 1 1-4.772 0 2.386 2.386 0 0 1 4.772 0"/>
    <path d="M148.405 135.28a2.386 2.386 0 1 1-4.772 0 2.386 2.386 0 0 1 4.772 0"/>
    <path d="M93.516 157.951a2.386 2.386 0 1 1-4.772 0 2.386 2.386 0 0 1 4.772 0"/>
    <path fill="#095d45" d="M98.838 55.654c-24.564 0-44.474 19.621-44.474 43.829s19.91 43.829 44.474 43.829 44.474-19.621 44.474-43.829-19.923-43.829-44.474-43.829m30.147 49.318-21.941-2.134 17.044 13.775a5.445 5.445 0 0 1 .269 8.034c-2.287 2.254-6.027 2.121-8.152-.265l-13.977-16.797 2.166 21.623c.215 3.182-2.341 5.873-5.569 5.873s-5.785-2.691-5.569-5.873l2.166-21.623-13.977 16.797c-2.125 2.4-5.865 2.519-8.152.265s-2.152-5.939.269-8.034l17.044-13.775-21.941 2.134c-3.229.212-5.959-2.307-5.959-5.489s2.731-5.701 5.959-5.489l21.941 2.134-17.044-13.775c-2.435-2.095-2.556-5.78-.269-8.034s6.027-2.121 8.152.265l13.977 16.797-2.166-21.623c-.215-3.182 2.341-5.873 5.569-5.873s5.785 2.691 5.569 5.873l-2.166 21.623 13.977-16.797c2.126-2.4 5.865-2.519 8.152-.265s2.152 5.939-.269 8.034l-17.044 13.775 21.941-2.134c3.229-.212 5.959 2.307 5.959 5.489s-2.731 5.701-5.959 5.489"/>
    <path d="m127.665 144.275 9.291 4.329-5.06-7.273 2.16-1.503 7.319 10.519-2.219 1.544-9.151-4.252 4.978 7.156-2.16 1.502-7.319-10.519 2.16-1.503Z"/>
    <path d="m123.683 152.741-1.258-3.063-6.424 2.639-.837-2.037 8.858-3.638 4.87 11.854-8.559 3.517-.837-2.037 6.126-2.516-1.102-2.681-5.679 2.332-.836-2.037 5.679-2.332h-.001Z"/>
    <path d="m102.801 152.194 2.338-.339 3.579 9.572.619-10.181 2.356-.343 5.42 12.163-2.763.401-3.348-9.226-.584 9.798-2.568.373-3.439-9.231-.511 9.805-2.763.401 1.665-13.191z"/>
    <path d="m75.143 146.479.963 10.205 3.716-8.043 2.388 1.103-5.375 11.634-2.453-1.134-.958-10.045-3.656 7.912-2.388-1.103 5.375-11.634z"/>
    <path d="m65.827 147.323 2.007-2.634-5.524-4.209 1.334-1.751 7.617 5.803-7.766 10.194-7.361-5.608 1.334-1.751 5.268 4.013 1.757-2.306-4.883-3.721 1.334-1.751 4.883 3.72Z"/>
    <path d="m55.715 129.035 1.478 1.843-6.435 7.939 9.09-4.63 1.49 1.857-7.734 10.839-1.747-2.178 6.254-7.564-8.74 4.465-1.624-2.025 6.212-7.645-8.71 4.532-1.747-2.178z"/>
    <path d="m46.646 102.311-8.32 5.987 8.818-.856.254 2.619-12.755 1.239-.261-2.69 8.184-5.902-8.676.843-.254-2.619 12.755-1.239.254 2.619Z"/>
    <path d="m41.193 94.691 3.289.386.809-6.897 2.187.257-1.116 9.511-12.728-1.494 1.078-9.19 2.187.257-.772 6.577 2.88.338.716-6.097 2.186.257-.715 6.097z"/>
    <path d="m51.82 76.716-.841 2.208-10.104-1.533 8.593 5.497-.848 2.224-13.263-1.186.995-2.609 9.689 1.567-8.274-5.28.924-2.425 9.738 1.489-8.316-5.219.994-2.609z"/>
    <path d="m70.283 55.342-9.384-4.125 5.218 7.16-2.126 1.549-7.547-10.357 2.184-1.592 9.242 4.051-5.134-7.045 2.126-1.55 7.547 10.357-2.126 1.55z"/>
    <path d="m74.081 46.789 1.326 3.034 6.364-2.78.881 2.017-8.775 3.834-5.131-11.744 8.48-3.705.881 2.017-6.069 2.651 1.161 2.657 5.626-2.458.881 2.017-5.626 2.458v.002Z"/>
    <path d="m94.968 46.879-2.33.39-3.786-9.493-.398 10.193-2.348.393-5.683-12.042 2.754-.461 3.547 9.151.372-9.808 2.56-.429 3.638 9.154.298-9.814 2.754-.461-1.379 13.225z"/>
    <path d="m122.738 51.947-1.177-10.182-3.546 8.119-2.411-1.053 5.13-11.744 2.477 1.082 1.169 10.023 3.489-7.988 2.411 1.053-5.13 11.744-2.411-1.053Z"/>
    <path d="m132.044 50.899-1.943 2.682 5.624 4.074-1.292 1.783-7.755-5.618 7.518-10.379 7.494 5.429-1.291 1.783-5.363-3.885-1.701 2.348 4.972 3.601-1.291 1.783z"/>
    <path d="m142.57 68.943-1.519-1.809 6.255-8.081-8.983 4.833-1.531-1.823 7.489-11.011 1.796 2.138-6.083 7.703 8.638-4.66 1.669 1.987-6.039 7.783 8.606-4.726 1.796 2.138-12.093 5.528z"/>
    <path d="m152.244 95.461 8.178-6.18-8.797 1.062-.315-2.612 12.722-1.536.325 2.683-8.045 6.091 8.654-1.045.316 2.612-12.723 1.536z"/>
    <path d="m157.869 102.95-3.296-.312-.655 6.914-2.191-.208.904-9.533 12.758 1.209-.873 9.212-2.193-.208.625-6.593-2.886-.274-.58 6.112-2.191-.208.579-6.112z"/>
    <path d="m147.689 121.204.782-2.229 10.141 1.264-8.736-5.266.788-2.246 13.291.832-.926 2.635-9.726-1.308 8.411 5.057-.86 2.449-9.774-1.23 8.453 4.996-.924 2.635z"/>
  </g>
</svg>
